<?xml version="1.0" encoding="UTF-8"?>
<!-- Created with Inkscape (http://www.inkscape.org/) -->
<svg 
	width="300" 
	height="300" 
	version="1.1" 
	viewBox="0 0 300 300" 
	xmlns="http://www.w3.org/2000/svg">

<!--Begin Filter -->
 <defs>
  <filter id="poison_light" x="-.062059" y="-.0967" width="1.1241" height="1.1934" color-interpolation-filters="sRGB">
   <feGaussianBlur stdDeviation="4.3816853"/>
  </filter>
  <filter id="light_bootle" x="-.025652" y="-.022548" width="1.0513" height="1.0451" color-interpolation-filters="sRGB">
   <feGaussianBlur stdDeviation="1.8894414">
    <animate
      id="light_bootle_1"
      attributeName="stdDeviation"
      values="0;4"
      begin="0s;light_bootle_2.end"
      dur="1.5s"
      />
      <animate
      id="light_bootle_2"
      attributeName="stdDeviation"
      values="4;0"
      begin="light_bootle_1.end"
      dur="1.5s"
      />
   </feGaussianBlur>
  </filter>
 </defs>
<!--End Filter -->

<!--Begin Background -->
 <rect 
 	y="-4.8828e-6" 
 	width="300" 
 	height="300" 
 	fill="#2a0000"/>
<!--End Background -->

<!--Begin Light Bottle -->
 <path 
 	d="m166.76 57.45c-13.062-0.0623-26.955 0.73204-46.311 0.0859-2.7685-0.0924-5 2.23-5 5v10.709c-2e-5 2.77 2.23 5 5 5h4.7226v6.209a88.388 88.388 0 0 0 -67.176 85.715 88.388 88.388 0 0 0 88.389 88.389 88.388 88.388 0 0 0 88.389 -88.389 88.388 88.388 0 0 0 -67.176 -85.695v-6.2285h4.7227c2.77 0 5-2.23 5-5v-10.709c0-2.77-2.231-4.9242-5-5-1.8457-0.0506-3.6945-0.077-5.5606-0.0859z" 
 	fill="#89f600" 
 	filter="url(#light_bootle)"/>
<!--End Light Bottle -->

<!--Begin Bottle -->
 <path 
 	d="m166.76 57.45c-13.062-0.0623-26.955 0.73204-46.311 0.0859-2.7685-0.0924-5 2.23-5 5v10.709c-2e-5 2.77 2.23 5 5 5h4.7226v6.209a88.388 88.388 0 0 0 -67.176 85.715 88.388 88.388 0 0 0 88.389 88.389 88.388 88.388 0 0 0 88.389 -88.389 88.388 88.388 0 0 0 -67.176 -85.695v-6.2285h4.7227c2.77 0 5-2.23 5-5v-10.709c0-2.77-2.231-4.9242-5-5-1.8457-0.0506-3.6945-0.077-5.5606-0.0859z" 
 	fill="#1b000c"/>
 <path 
 	d="m231.11 170.17c0 46.793-37.933 84.727-84.727 84.727-46.793 0-84.727-37.933-84.727-84.727-1e-6 -40.912 28.997-75.051 67.559-82.986 12.071 2.5421 23.795 1.9463 35.395 0.22531 38.033 8.3382 66.499 42.225 66.499 82.761z" 
 	fill="#270600"/>
 <path 
 	d="m122.57 61.1c16.221 0.59986 32.004 0.30589 47.553 0 1.8278-0.036 3.3 1.4718 3.3 3.3v6.2541c0 1.8282-1.4718 3.3-3.3 3.3h-47.553c-1.8282 0-3.3-1.4718-3.3-3.3v-6.2541c0-1.8282 1.473-3.3676 3.3-3.3z" 
 	fill="#270600"/>
 <path 
 	d="m129.08 77.57v6.0117c9.8102 2.4161 28.289 2.4275 35 0v-6.0117z"
 	fill="#270600"/>
 <!--End Bottle -->

<!--Begin Poison Light-->
 <path 
  fill="#a6b800"
  filter="url(#poison_light)">
    <animate
      id="poi_light_1"
      attributeName="d"
      values="m62.692 157.03c-0.66726 4.2839-1.0332 8.6677-1.0332 13.139 2e-6 46.793 37.933 84.727 84.727 84.727 46.793 0 84.727-37.933 84.727-84.727 0-4.4706-0.36411-8.8552-1.0312-13.139-6.6364 7.6423-35.158 0.15907-80.413-6.0609-71.377-9.9155-80.573-2.8602-86.976 6.0609z;
      m 62.692,157.03 c -0.66726,4.2839 -1.0332,8.6677 -1.0332,13.139 2e-6,46.793 37.933,84.727 84.727,84.727 46.793,0 84.727,-37.933 84.727,-84.727 0,-4.4706 -0.36411,-8.8552 -1.0312,-13.139 0.18317,-10.93475 -33.91854,-19.76401 -100.75198,-9.23887 -54.851579,7.24552 -57.691647,0.95336 -66.63702,9.23887 z"
      begin="0s;poi_light_2.end"
      dur="1.5s"
      />
    <animate
      id="poi_light_2"
      attributeName="d"
      values="m 62.692,157.03 c -0.66726,4.2839 -1.0332,8.6677 -1.0332,13.139 2e-6,46.793 37.933,84.727 84.727,84.727 46.793,0 84.727,-37.933 84.727,-84.727 0,-4.4706 -0.36411,-8.8552 -1.0312,-13.139 0.18317,-10.93475 -33.91854,-19.76401 -100.75198,-9.23887 -54.851579,7.24552 -57.691647,0.95336 -66.63702,9.23887 z;
      m62.692 157.03c-0.66726 4.2839-1.0332 8.6677-1.0332 13.139 2e-6 46.793 37.933 84.727 84.727 84.727 46.793 0 84.727-37.933 84.727-84.727 0-4.4706-0.36411-8.8552-1.0312-13.139-6.6364 7.6423-35.158 0.15907-80.413-6.0609-71.377-9.9155-80.573-2.8602-86.976 6.0609z"
      begin="poi_light_1.end"
      dur="1.5s"
      />
 </path>
 <!--End Poison Light-->

  <!--Begin Poison Back-->
 <path 
 	fill="#9bc300">
    <animate
      id="poi_back_1"
      attributeName="d"
      values="m62.692 157.03c-0.66726 4.2839-1.0332 8.6677-1.0332 13.139 2e-6 46.793 37.933 84.727 84.727 84.727 46.793 0 84.727-37.933 84.727-84.727 0-4.4706-0.36411-8.8552-1.0312-13.139-6.6364 7.6423-35.158 0.15907-80.413-6.0609-71.377-9.9155-80.573-2.8602-86.976 6.0609z;
      m 62.692,157.03 c -0.66726,4.2839 -1.0332,8.6677 -1.0332,13.139 2e-6,46.793 37.933,84.727 84.727,84.727 46.793,0 84.727,-37.933 84.727,-84.727 0,-4.4706 -0.36411,-8.8552 -1.0312,-13.139 0.18317,-10.93475 -33.91854,-19.76401 -100.75198,-9.23887 -54.851579,7.24552 -57.691647,0.95336 -66.63702,9.23887 z"
      begin="0s;poi_back_2.end"
      dur="1.5s"
      />
    <animate
      id="poi_back_2"
      attributeName="d"
      values="m 62.692,157.03 c -0.66726,4.2839 -1.0332,8.6677 -1.0332,13.139 2e-6,46.793 37.933,84.727 84.727,84.727 46.793,0 84.727,-37.933 84.727,-84.727 0,-4.4706 -0.36411,-8.8552 -1.0312,-13.139 0.18317,-10.93475 -33.91854,-19.76401 -100.75198,-9.23887 -54.851579,7.24552 -57.691647,0.95336 -66.63702,9.23887 z;
      m62.692 157.03c-0.66726 4.2839-1.0332 8.6677-1.0332 13.139 2e-6 46.793 37.933 84.727 84.727 84.727 46.793 0 84.727-37.933 84.727-84.727 0-4.4706-0.36411-8.8552-1.0312-13.139-6.6364 7.6423-35.158 0.15907-80.413-6.0609-71.377-9.9155-80.573-2.8602-86.976 6.0609z"
      begin="poi_back_1.end"
      dur="1.5s"
      />
 </path>
 <!--End Poison Back-->

 <!--Begin Poison Front-->
 <path 
 	fill="#739a00">
    <animate
      id="poi_front_1"
      attributeName="d"
      values="m62.692 157.03c-0.66726 4.2839-1.0332 8.6677-1.0332 13.139 2e-6 46.793 37.933 84.727 84.727 84.727 46.793 0 84.727-37.933 84.727-84.727 0-4.4706-0.36411-8.8552-1.0312-13.139-7.1302-16.488-52.947-12.538-86.979 5.0508-31.611 16.066-81.443 8.0879-80.41-5.0508z;
      m 62.692,157.03 c -0.66726,4.2839 -1.0332,8.6677 -1.0332,13.139 2e-6,46.793 37.933,84.727 84.727,84.727 46.793,0 84.727,-37.933 84.727,-84.727 0,-4.4706 -0.36411,-8.8552 -1.0312,-13.139 -19.20647,10.84251 -44.04869,25.59759 -95.24171,6.32199 C 100.05092,149.54511 76.913837,143.47378 62.6926,157.03 Z"
      begin="0s;poi_front_2.end"
      dur="1.5s"
      />
    <animate
      id="poi_front_2"
      attributeName="d"
      values="m 62.692,157.03 c -0.66726,4.2839 -1.0332,8.6677 -1.0332,13.139 2e-6,46.793 37.933,84.727 84.727,84.727 46.793,0 84.727,-37.933 84.727,-84.727 0,-4.4706 -0.36411,-8.8552 -1.0312,-13.139 -19.20647,10.84251 -44.04869,25.59759 -95.24171,6.32199 C 100.05092,149.54511 76.913837,143.47378 62.6926,157.03 Z;
      m62.692 157.03c-0.66726 4.2839-1.0332 8.6677-1.0332 13.139 2e-6 46.793 37.933 84.727 84.727 84.727 46.793 0 84.727-37.933 84.727-84.727 0-4.4706-0.36411-8.8552-1.0312-13.139-7.1302-16.488-52.947-12.538-86.979 5.0508-31.611 16.066-81.443 8.0879-80.41-5.0508z"
      begin="poi_front_1.end"
      dur="1.5s"
      />
 </path>
 <!--End Poison Front-->

<!--Begin Poison Mask-->
<mask id="mask_1">
 <path 
  fill="#739a00">
    <animate
      id="poi_front_1"
      attributeName="d"
      values="m62.692 157.03c-0.66726 4.2839-1.0332 8.6677-1.0332 13.139 2e-6 46.793 37.933 84.727 84.727 84.727 46.793 0 84.727-37.933 84.727-84.727 0-4.4706-0.36411-8.8552-1.0312-13.139-7.1302-16.488-52.947-12.538-86.979 5.0508-31.611 16.066-81.443 8.0879-80.41-5.0508z;
      m 62.692,157.03 c -0.66726,4.2839 -1.0332,8.6677 -1.0332,13.139 2e-6,46.793 37.933,84.727 84.727,84.727 46.793,0 84.727,-37.933 84.727,-84.727 0,-4.4706 -0.36411,-8.8552 -1.0312,-13.139 -19.20647,10.84251 -44.04869,25.59759 -95.24171,6.32199 C 100.05092,149.54511 76.913837,143.47378 62.6926,157.03 Z"
      begin="0s;poi_front_2.end"
      dur="1.5s"
      />
    <animate
      id="poi_front_2"
      attributeName="d"
      values="m 62.692,157.03 c -0.66726,4.2839 -1.0332,8.6677 -1.0332,13.139 2e-6,46.793 37.933,84.727 84.727,84.727 46.793,0 84.727,-37.933 84.727,-84.727 0,-4.4706 -0.36411,-8.8552 -1.0312,-13.139 -19.20647,10.84251 -44.04869,25.59759 -95.24171,6.32199 C 100.05092,149.54511 76.913837,143.47378 62.6926,157.03 Z;
      m62.692 157.03c-0.66726 4.2839-1.0332 8.6677-1.0332 13.139 2e-6 46.793 37.933 84.727 84.727 84.727 46.793 0 84.727-37.933 84.727-84.727 0-4.4706-0.36411-8.8552-1.0312-13.139-7.1302-16.488-52.947-12.538-86.979 5.0508-31.611 16.066-81.443 8.0879-80.41-5.0508z"
      begin="poi_front_1.end"
      dur="1.5s"
      />
 </path>
</mask>
 <!--End Poison Mask-->

<!--Begin Bubble-->
<g mask="url(#mask_1)"> <!--open tag for begin group objects of bubble -->
 <circle cx="122.86" cy="279.29" r="8.5714" fill="#9bc300">
    <animateTransform
      attributeName="transform"
      type="translate"
      from="0 0"
      to="0 -130"
      begin="0s"
      dur="1s"
      repeatCount="indefinite"
      />
 </circle>
 <circle cx="146.79" cy="281.08" r="6.7857" fill="#9bc300">
  <animateTransform
      attributeName="transform"
      type="translate"
      from="0 0"
      to="0 -130"
      begin="0.5s"
      dur="1.3s"
      repeatCount="indefinite"
      />
  </circle>
 <circle cx="167.5" cy="268.93" r="3.9286" fill="#9bc300">
  <animateTransform
      attributeName="transform"
      type="translate"
      from="0 0"
      to="0 -130"
      begin="0.7s"
      dur="0.7s"
      repeatCount="indefinite"
      />
</circle>
 <circle cx="91.786" cy="263.22" r="3.9286" fill="#9bc300">
  <animateTransform
      attributeName="transform"
      type="translate"
      from="0 0"
      to="0 -130"
      begin="2s"
      dur="1.5s"
      repeatCount="indefinite"
      />
 </circle>
 <circle cx="101.07" cy="283.22" r="6.0714" fill="#9bc300">
  <animateTransform
      attributeName="transform"
      type="translate"
      from="0 0"
      to="0 -130"
      begin="0.2s"
      dur="1.9s"
      repeatCount="indefinite"
      />
 </circle>
 <circle cx="115.71" cy="296.43" r="3.9286" fill="#9bc300">
  <animateTransform
      attributeName="transform"
      type="translate"
      from="0 0"
      to="0 -130"
      begin="0.5s"
      dur="2s"
      repeatCount="indefinite"
      />
 </circle>
 <circle cx="167.86" cy="287.86" r="3.9286" fill="#9bc300">
  <animateTransform
      attributeName="transform"
      type="translate"
      from="0 0"
      to="0 -130"
      begin="2s"
      dur="0.5s"
      repeatCount="indefinite"
      />
 </circle>
 <circle cx="205" cy="280" r="8.5714" fill="#9bc300">
    <animateTransform
      attributeName="transform"
      type="translate"
      from="0 0"
      to="0 -130"
      begin="1.5s"
      dur="1.5s"
      repeatCount="indefinite"
      />
 </circle>
</g><!--end group -->
 <!--End Bubble-->
 
<!--Begin Bottle Gloss -->
 <path 
 	d="m129.08 77.57v6.0117c2.6242 0.6463 5.8761 1.1164 9.3496 1.418-0.80156-1.7895-1.5079-3.6606 0-7.4297z" 
 	fill="#fff" 
 	fill-opacity=".16"/>
 <path 
 	d="m122.57 61.1c-1.827-0.0676-3.2988 1.4726-3.2988 3.3008v6.2539c0 1.8282 1.4706 3.3008 3.2988 3.3008h10.557c-3.6393 0.0928-3.3895-12.899 0-12.586-3.5002-0.0549-7.0169-0.13863-10.557-0.26953z" 
 	fill="#fff" 
 	fill-opacity=".16"/>
 <path 
 	d="m122.57 61.1c-1.827-0.0676-3.2988 1.4726-3.2988 3.3008v6.2539c0 1.8282 1.4706 3.3008 3.2988 3.3008h0.58008c-2.7596-3.4874-2.9832-9.704 0-12.838-0.19383-7e-3 -0.38612-0.0104-0.58008-0.0176z" 
 	fill="#fff" 
 	fill-opacity=".52889"/>
 <path 
 	d="m129.08 77.57v6.0117c0.59937 0.14761 1.2404 0.28278 1.9004 0.4121v-6.4238z" 
 	fill="#fff" 
 	fill-opacity=".52889"/>
 <path 
 	d="m129.22 87.18c-38.563 7.9358-67.559 42.075-67.559 82.986 2e-6 27.838 13.428 52.537 34.158 67.982-22.849-32.459-25.488-74.901-2.8066-110.57 10.715-16.852 25.747-30.101 43.133-39.266-2.2965-0.27107-4.6052-0.64019-6.9258-1.1289z" 
 	fill="#fff" 
 	fill-opacity=".16"/>
 <path 
 	d="m124.52 88.31c-36.192 9.6434-62.861 42.629-62.861 81.859 1e-6 8.272 1.1957 16.263 3.4062 23.82-1.2788-6.1092-1.957-12.438-1.957-18.928-1e-6 -40.077 25.642-74.159 61.412-86.752z" 
 	fill="#fff" 
 	fill-opacity=".52889"/>
 <path 
 	d="m166.76 57.45c-3.0772-0.0147-6.2095 0.0199-9.4394 0.0703 0.33221 8e-3 0.66807 7e-3 1 0.0156 2.769 0.0759 5 2.23 5 5v10.709c0 2.77-2.23 5-5 5h-4.7227v6.2285a88.388 88.388 0 0 1 67.176 85.695 88.388 88.388 0 0 1 -81.604 88.049 88.388 88.388 0 0 0 7.2148 0.33984 88.388 88.388 0 0 0 88.389 -88.389 88.388 88.388 0 0 0 -67.176 -85.695v-6.2285h4.7227c2.77 0 5-2.23 5-5v-10.709c0-2.77-2.231-4.9242-5-5-1.8457-0.0506-3.6945-0.077-5.5606-0.0859zm-46.311 0.0859c-0.5698-0.019-1.1155 0.0679-1.625 0.23633 3.7846 0.0243 7.3467 7e-3 10.75-0.0332-2.922-0.0385-5.9253-0.0963-9.125-0.20313z" fill-opacity=".1256"/>
 <!--End Bottle Gloss -->
 	
 <!--Begin Skull -->
 <path 
 	d="m177.36 129.31a4.1071 4.1071 0 0 0 -2.9648 1.2012 4.1071 4.1071 0 0 0 0 5.8086 4.1071 4.1071 0 0 0 0.86328 0.65234l-12.189 12.189c0.7768 0.41515 1.5304 0.85048 2.2363 1.3223 0.65569 0.43824 1.2775 0.90423 1.8672 1.3906l11.494-11.494a4.1071 4.1071 0 0 0 0.65234 0.86328 4.1071 4.1071 0 0 0 5.8086 0 4.1071 4.1071 0 0 0 0 -5.8066 4.1071 4.1071 0 0 1 0 -2e-3 4.1071 4.1071 0 0 0 -3.832 -1.0918 4.1071 4.1071 0 0 0 -1.0918 -3.832 4.1071 4.1071 0 0 0 -2.8438 -1.2012zm-62.988 2.3203a4.1071 4.1071 0 0 0 -2.8418 1.2031 4.1071 4.1071 0 0 0 -1.0938 3.832 4.1071 4.1071 0 0 0 -3.832 1.0918 4.1071 4.1071 0 0 0 0 5.8086 4.1071 4.1071 0 0 0 5.8086 0 4.1071 4.1071 0 0 0 0.6543 -0.86328l11.047 11.049c1.0609-1.1464 2.3015-2.1958 3.6816-3.1367l-11.32-11.32a4.1071 4.1071 0 0 0 0.86328 -0.6543 4.1071 4.1071 0 0 0 -2e-3 -5.8066 4.1071 4.1071 0 0 0 -2.9648 -1.2031zm32.268 14.803a25.506 17.046 0 0 0 -25.506 17.047 25.506 17.046 0 0 0 15.91 15.781v6.8203h19.193v-6.8203a25.506 17.046 0 0 0 15.908 -15.781 25.506 17.046 0 0 0 -25.506 -17.047zm-10.229 9.8496a7.0711 5.3033 0 0 1 7.0723 5.3027 7.0711 5.3033 0 0 1 -7.0723 5.3027 7.0711 5.3033 0 0 1 -7.0703 -5.3027 7.0711 5.3033 0 0 1 7.0703 -5.3027zm20.457 0a7.0711 5.3033 0 0 1 7.0703 5.3027 7.0711 5.3033 0 0 1 -7.0703 5.3027 7.0711 5.3033 0 0 1 -7.0723 -5.3027 7.0711 5.3033 0 0 1 7.0723 -5.3027zm-10.496 11.066 5.4453 5.1777-5.4453-2.1426-4.9102 2.3203zm-12.299 12.061-10.113 10.113a4.1071 4.1071 0 0 0 -0.6543 -0.86328 4.1071 4.1071 0 0 0 -5.8086 0 4.1071 4.1071 0 0 0 0 5.8086 4.1071 4.1071 0 0 0 3.834 1.0918 4.1071 4.1071 0 0 0 1.0918 3.834 4.1071 4.1071 0 0 0 5.8066 -2e-3 4.1071 4.1071 0 0 0 2e-3 -5.8066 4.1071 4.1071 0 0 0 -0.86328 -0.65429l8.541-8.541v-4.3672c-0.62608-0.18844-1.237-0.39494-1.8359-0.61328zm25.051 0.0352c-0.57131 0.20651-1.1561 0.39872-1.752 0.57812v4.4863l9.1367 9.1367a4.1071 4.1071 0 0 0 -0.86328 0.6543 4.1071 4.1071 0 0 0 0 5.8066 4.1071 4.1071 0 0 0 5.8086 0 4.1071 4.1071 0 0 0 1.0918 -3.832 4.1071 4.1071 0 0 0 3.832 -1.0918 4.1071 4.1071 0 0 0 0 -5.8086 4.1071 4.1071 0 0 0 -5.8086 0 4.1071 4.1071 0 0 0 -0.65234 0.86328z" 
 	fill="#fff" 
 	fill-opacity=".43961"/>
 <!--End Skull -->

</svg>
